CommonSerif-Italic.ufo
<glyph name="K" format="2">
  <advance width="614"/>
  <unicode hex="004B"/>
  <anchor x="453" y="740" name="t.uni0302"/>
  <anchor x="297" y="-60" name="b.minus-60"/>
  <outline>
    <contour>
      <point x="126" y="0" type="line"/>
      <point x="149" y="0" type="line" smooth="yes"/>
      <point x="184" y="0"/>
      <point x="224" y="-1"/>
      <point x="263" y="-2" type="curve"/>
      <point x="266" y="2"/>
      <point x="269" y="22"/>
      <point x="266" y="27" type="curve"/>
      <point x="212" y="31"/>
      <point x="187" y="40"/>
      <point x="187" y="64" type="curve" smooth="yes"/>
      <point x="187" y="68"/>
      <point x="187" y="72"/>
      <point x="188" y="76" type="curve"/>
      <point x="285" y="569" type="line" smooth="yes"/>
      <point x="292" y="602"/>
      <point x="319" y="614"/>
      <point x="378" y="618" type="curve"/>
      <point x="382" y="622"/>
      <point x="384" y="638"/>
      <point x="380" y="647" type="curve"/>
      <point x="340" y="646"/>
      <point x="307" y="645"/>
      <point x="273" y="645" type="curve" smooth="yes"/>
      <point x="250" y="645" type="line"/>
    </contour>
    <contour>
      <point x="218" y="308" type="line"/>
      <point x="261" y="312"/>
      <point x="292" y="303"/>
      <point x="311" y="271" type="curve" smooth="yes"/>
      <point x="429" y="73" type="line" smooth="yes"/>
      <point x="441" y="53"/>
      <point x="450" y="22"/>
      <point x="450" y="8" type="curve" smooth="yes"/>
      <point x="450" y="5"/>
      <point x="454" y="0"/>
      <point x="459" y="-2" type="curve"/>
      <point x="474" y="-1"/>
      <point x="482" y="0"/>
      <point x="503" y="0" type="curve" smooth="yes"/>
      <point x="531" y="0" type="line" smooth="yes"/>
      <point x="552" y="0"/>
      <point x="570" y="-1"/>
      <point x="602" y="-2" type="curve"/>
      <point x="607" y="3"/>
      <point x="612" y="17"/>
      <point x="607" y="25" type="curve"/>
      <point x="565" y="31"/>
      <point x="550" y="41"/>
      <point x="530" y="73" type="curve" smooth="yes"/>
      <point x="370" y="333" type="line" smooth="yes"/>
      <point x="365" y="341"/>
      <point x="363" y="347"/>
      <point x="363" y="353" type="curve" smooth="yes"/>
      <point x="363" y="362"/>
      <point x="372" y="374"/>
      <point x="392" y="392" type="curve" smooth="yes"/>
      <point x="572" y="558" type="line" smooth="yes"/>
      <point x="626" y="607"/>
      <point x="664" y="613"/>
      <point x="704" y="618" type="curve"/>
      <point x="715" y="622"/>
      <point x="720" y="639"/>
      <point x="717" y="647" type="curve"/>
      <point x="678" y="646"/>
      <point x="665" y="645"/>
      <point x="638" y="645" type="curve" smooth="yes"/>
      <point x="623" y="645" type="line" smooth="yes"/>
      <point x="584" y="645"/>
      <point x="557" y="645"/>
      <point x="512" y="647" type="curve"/>
      <point x="508" y="644"/>
      <point x="504" y="626"/>
      <point x="507" y="620" type="curve"/>
      <point x="539" y="618"/>
      <point x="554" y="611"/>
      <point x="554" y="602" type="curve" smooth="yes"/>
      <point x="554" y="593"/>
      <point x="543" y="579"/>
      <point x="525" y="562" type="curve" smooth="yes"/>
      <point x="329" y="386" type="line" smooth="yes"/>
      <point x="301" y="361"/>
      <point x="273" y="344"/>
      <point x="226" y="347" type="curve"/>
    </contour>
    <contour>
      <point x="174" y="0" type="line"/>
      <point x="282" y="554" type="line"/>
      <point x="251" y="645" type="line"/>
      <point x="207" y="645"/>
      <point x="170" y="646"/>
      <point x="137" y="647" type="curve"/>
      <point x="135" y="645"/>
      <point x="129" y="628"/>
      <point x="134" y="618" type="curve"/>
      <point x="185" y="616"/>
      <point x="205" y="606"/>
      <point x="205" y="585" type="curve" smooth="yes"/>
      <point x="205" y="567"/>
      <point x="204" y="551"/>
      <point x="198" y="521" type="curve" smooth="yes"/>
      <point x="121" y="122" type="line" smooth="yes"/>
      <point x="108" y="56"/>
      <point x="85" y="34"/>
      <point x="17" y="27" type="curve"/>
      <point x="11" y="17"/>
      <point x="8" y="5"/>
      <point x="13" y="-2" type="curve"/>
      <point x="58" y="-1"/>
      <point x="98" y="0"/>
      <point x="135" y="0" type="curve" smooth="yes"/>
    </contour>
  </outline>
  <guideline angle="42.6368" x="408" y="407"/>
  <guideline angle="259.077" x="410" y="521"/>
</glyph>
<glyph name="p" format="2">
  <advance width="469"/>
  <unicode hex="0070"/>
  <anchor x="346" y="530" name="t.uni0302"/>
  <anchor x="235" y="-60" name="b.minus-60"/>
  <outline>
    <contour>
      <point x="228" y="321" type="line" smooth="yes"/>
      <point x="241" y="380"/>
      <point x="243" y="392"/>
      <point x="253" y="426" type="curve"/>
      <point x="253" y="433"/>
      <point x="250" y="436"/>
      <point x="241" y="436" type="curve"/>
      <point x="199" y="422"/>
      <point x="145" y="414"/>
      <point x="101" y="410" type="curve"/>
      <point x="97" y="403"/>
      <point x="94" y="391"/>
      <point x="96" y="381" type="curve"/>
      <point x="138" y="377"/>
      <point x="155" y="367"/>
      <point x="155" y="351" type="curve" smooth="yes"/>
      <point x="155" y="340"/>
      <point x="153" y="323"/>
      <point x="148" y="301" type="curve" smooth="yes"/>
      <point x="38" y="-161" type="line" smooth="yes"/>
      <point x="31" y="-189"/>
      <point x="17" y="-201"/>
      <point x="-15" y="-206" type="curve" smooth="yes"/>
      <point x="-34" y="-209" type="line"/>
      <point x="-39" y="-210"/>
      <point x="-44" y="-211"/>
      <point x="-44" y="-217" type="curve" smooth="yes"/>
      <point x="-44" y="-236" type="line"/>
      <point x="-42" y="-238" type="line"/>
      <point x="-42" y="-238"/>
      <point x="31" y="-233"/>
      <point x="67" y="-233" type="curve" smooth="yes"/>
      <point x="100" y="-233" type="line" smooth="yes"/>
      <point x="136" y="-233"/>
      <point x="174" y="-235"/>
      <point x="174" y="-235" type="curve"/>
      <point x="176" y="-233" type="line"/>
      <point x="176" y="-213" type="line" smooth="yes"/>
      <point x="176" y="-208"/>
      <point x="174" y="-206"/>
      <point x="170" y="-205" type="curve"/>
      <point x="151" y="-202" type="line" smooth="yes"/>
      <point x="138" y="-200"/>
      <point x="117" y="-197"/>
      <point x="117" y="-173" type="curve" smooth="yes"/>
      <point x="117" y="-170"/>
      <point x="117" y="-166"/>
      <point x="118" y="-161" type="curve"/>
    </contour>
    <contour>
      <point x="226" y="352" type="line"/>
      <point x="253" y="369"/>
      <point x="284" y="393"/>
      <point x="329" y="393" type="curve" smooth="yes"/>
      <point x="395" y="393"/>
      <point x="407" y="327"/>
      <point x="407" y="273" type="curve" smooth="yes"/>
      <point x="407" y="193"/>
      <point x="343" y="25"/>
      <point x="245" y="25" type="curve" smooth="yes"/>
      <point x="215" y="25"/>
      <point x="183" y="43"/>
      <point x="161" y="83" type="curve"/>
      <point x="155" y="32" type="line"/>
      <point x="166" y="14"/>
      <point x="201" y="-10"/>
      <point x="235" y="-10" type="curve" smooth="yes"/>
      <point x="377" y="-10"/>
      <point x="489" y="160"/>
      <point x="489" y="289" type="curve" smooth="yes"/>
      <point x="489" y="392"/>
      <point x="450" y="439"/>
      <point x="366" y="439" type="curve" smooth="yes"/>
      <point x="327" y="439"/>
      <point x="268" y="416"/>
      <point x="235" y="391" type="curve"/>
    </contour>
  </outline>
  <guideline angle="77.1444" x="226" y="352"/>
</glyph>
<glyph name="ordfeminine" format="2">
  <advance width="296"/>
  <unicode hex="00AA"/>
  <outline>
    <contour>
      <point x="357.5" y="637" type="curve" smooth="yes"/>
      <point x="349.271" y="637"/>
      <point x="339.729" y="632"/>
      <point x="331.499" y="632" type="curve" smooth="yes"/>
      <point x="313.005" y="632"/>
      <point x="294.062" y="637"/>
      <point x="275" y="637" type="curve" smooth="yes"/>
      <point x="199.075" y="637"/>
      <point x="118" y="519.778"/>
      <point x="118" y="442" type="curve" smooth="yes"/>
      <point x="118" y="402.133"/>
      <point x="128.784" y="359"/>
      <point x="178" y="359" type="curve" smooth="yes"/>
      <point x="211" y="359"/>
      <point x="246" y="393"/>
      <point x="283" y="448" type="curve"/>
      <point x="285" y="447" type="line"/>
      <point x="277" y="427"/>
      <point x="270" y="407"/>
      <point x="270" y="387" type="curve" smooth="yes"/>
      <point x="270" y="369.755"/>
      <point x="278.965" y="359"/>
      <point x="296" y="359" type="curve" smooth="yes"/>
      <point x="334" y="359"/>
      <point x="359" y="384"/>
      <point x="375" y="419" type="curve"/>
      <point x="373.009" y="424.579"/>
      <point x="369" y="429"/>
      <point x="361" y="429" type="curve"/>
      <point x="344" y="406"/>
      <point x="332" y="396"/>
      <point x="326" y="396" type="curve" smooth="yes"/>
      <point x="324" y="396"/>
      <point x="319" y="398"/>
      <point x="319" y="405" type="curve" smooth="yes"/>
      <point x="319" y="411"/>
      <point x="322.33" y="427.131"/>
      <point x="325" y="439" type="curve" smooth="yes"/>
      <point x="352" y="559" type="line" smooth="yes"/>
      <point x="356.477" y="578.899"/>
      <point x="366.619" y="611.512"/>
      <point x="366.619" y="626.617" type="curve" smooth="yes"/>
      <point x="366.619" y="630.74"/>
      <point x="362.705" y="637"/>
    </contour>
    <contour>
      <point x="293" y="501" type="curve"/>
      <point x="280.693" y="478.144"/>
      <point x="225.512" y="393"/>
      <point x="195" y="393" type="curve" smooth="yes"/>
      <point x="171.193" y="393"/>
      <point x="167.525" y="429.311"/>
      <point x="167.559" y="447.678" type="curve" smooth="yes"/>
      <point x="167.679" y="512.488"/>
      <point x="216.317" y="618"/>
      <point x="276" y="618" type="curve" smooth="yes"/>
      <point x="289.485" y="618"/>
      <point x="303.183" y="612.729"/>
      <point x="315" y="606" type="curve"/>
      <point x="314.523" y="595.071"/>
      <point x="309" y="541"/>
    </contour>
  </outline>
</glyph>
<glyph name="Tbar" format="2">
  <advance width="544"/>
  <unicode hex="0166"/>
  <outline>
    <contour>
      <point x="167" y="-2" type="curve"/>
      <point x="212" y="-1"/>
      <point x="248" y="0"/>
      <point x="287" y="0" type="curve" smooth="yes"/>
      <point x="325" y="0"/>
      <point x="370" y="-1"/>
      <point x="414" y="-2" type="curve"/>
      <point x="417" y="2"/>
      <point x="420" y="22"/>
      <point x="417" y="27" type="curve"/>
      <point x="361" y="33"/>
      <point x="333" y="43"/>
      <point x="339" y="76" type="curve" smooth="yes"/>
      <point x="388" y="329" type="line"/>
      <point x="516" y="329" type="line"/>
      <point x="528" y="329"/>
      <point x="540" y="344"/>
      <point x="542" y="355" type="curve"/>
      <point x="542" y="362"/>
      <point x="541" y="368"/>
      <point x="533" y="368" type="curve" smooth="yes"/>
      <point x="396" y="368" type="line"/>
      <point x="434" y="564" type="line" smooth="yes"/>
      <point x="441" y="598"/>
      <point x="454" y="606"/>
      <point x="488" y="606" type="curve" smooth="yes"/>
      <point x="542" y="606" type="line" smooth="yes"/>
      <point x="594" y="606"/>
      <point x="609" y="580"/>
      <point x="626" y="513" type="curve"/>
      <point x="636" y="513"/>
      <point x="644" y="513"/>
      <point x="656" y="518" type="curve"/>
      <point x="645" y="575"/>
      <point x="643" y="618"/>
      <point x="646" y="657" type="curve"/>
      <point x="644" y="659" type="line"/>
      <point x="612" y="653"/>
      <point x="599" y="645"/>
      <point x="563" y="645" type="curve" smooth="yes"/>
      <point x="229" y="645" type="line" smooth="yes"/>
      <point x="203" y="645"/>
      <point x="182" y="654"/>
      <point x="159" y="659" type="curve"/>
      <point x="157" y="657" type="line"/>
      <point x="145" y="609"/>
      <point x="133" y="581"/>
      <point x="111" y="528" type="curve"/>
      <point x="119" y="523"/>
      <point x="132" y="521"/>
      <point x="141" y="521" type="curve"/>
      <point x="170" y="586"/>
      <point x="195" y="606"/>
      <point x="248" y="606" type="curve" smooth="yes"/>
      <point x="317" y="606" type="line" smooth="yes"/>
      <point x="356" y="606"/>
      <point x="363" y="596"/>
      <point x="357" y="567" type="curve" smooth="yes"/>
      <point x="319" y="368" type="line"/>
      <point x="196" y="368" type="line" smooth="yes"/>
      <point x="184" y="368"/>
      <point x="172" y="349"/>
      <point x="172" y="339" type="curve" smooth="yes"/>
      <point x="172" y="334"/>
      <point x="174" y="329"/>
      <point x="180" y="329" type="curve"/>
      <point x="311" y="329" type="line"/>
      <point x="262" y="76" type="line" smooth="yes"/>
      <point x="255" y="41"/>
      <point x="229" y="29"/>
      <point x="169" y="27" type="curve"/>
      <point x="165" y="23"/>
      <point x="163" y="7"/>
    </contour>
  </outline>
</glyph>
<glyph name="Uhungarumlaut" format="2">
  <advance width="634"/>
  <unicode hex="0170"/>
  <outline>
    <component base="U"/>
    <contour>
      <point x="644" y="830" type="curve" smooth="yes"/>
      <point x="631.105" y="830"/>
      <point x="622.68" y="822.849"/>
      <point x="615" y="813" type="curve" smooth="yes"/>
      <point x="530" y="704" type="line" smooth="yes"/>
      <point x="529.13" y="702.885"/>
      <point x="528" y="699"/>
      <point x="528" y="696" type="curve" smooth="yes"/>
      <point x="528" y="690"/>
      <point x="534" y="686"/>
      <point x="539" y="686" type="curve" smooth="yes"/>
      <point x="544.349" y="686"/>
      <point x="547.803" y="687.964"/>
      <point x="552" y="691" type="curve" smooth="yes"/>
      <point x="664" y="772" type="line" smooth="yes"/>
      <point x="673.223" y="778.67"/>
      <point x="677" y="788.636"/>
      <point x="677" y="799" type="curve" smooth="yes"/>
      <point x="677" y="815"/>
      <point x="668" y="830"/>
    </contour>
    <contour>
      <point x="517" y="835" type="curve" smooth="yes"/>
      <point x="504.922" y="835"/>
      <point x="495.634" y="833.452"/>
      <point x="488" y="823" type="curve" smooth="yes"/>
      <point x="404" y="708" type="line" smooth="yes"/>
      <point x="403.166" y="706.858"/>
      <point x="402" y="704"/>
      <point x="402" y="701" type="curve" smooth="yes"/>
      <point x="402" y="695.038"/>
      <point x="406.987" y="690"/>
      <point x="413" y="690" type="curve" smooth="yes"/>
      <point x="415" y="690"/>
      <point x="418.476" y="690.096"/>
      <point x="421" y="692" type="curve" smooth="yes"/>
      <point x="535" y="778" type="line" smooth="yes"/>
      <point x="543.592" y="784.482"/>
      <point x="548" y="794.362"/>
      <point x="548" y="805" type="curve" smooth="yes"/>
      <point x="548" y="823"/>
      <point x="531" y="835"/>
    </contour>
  </outline>
</glyph>
<glyph name="uni02D1" format="2">
  <advance width="204"/>
  <unicode hex="02D1"/>
  <outline>
    <contour>
      <point x="118" y="404" type="line"/>
      <point x="163" y="283" type="line"/>
      <point x="257" y="404" type="line"/>
    </contour>
  </outline>
</glyph>
<glyph name="uni02F1" format="2">
  <advance width="282"/>
  <unicode hex="02F1"/>
  <outline>
    <contour>
      <point x="62" y="-130" type="line"/>
      <point x="238" y="-70" type="line"/>
      <point x="245" y="-32" type="line"/>
      <point x="-4" y="-116" type="line"/>
      <point x="-9" y="-144" type="line"/>
      <point x="206" y="-228" type="line"/>
      <point x="213" y="-190" type="line"/>
    </contour>
  </outline>
</glyph>
<glyph name="uni0314" format="2">
  <unicode hex="0314"/>
  <anchor x="14" y="510" name="_t.uni0302"/>
  <anchor x="107" y="696" name="_t.gr"/>
  <outline>
    <contour>
      <point x="66.9045" y="696" type="curve" smooth="yes"/>
      <point x="19.2983" y="696"/>
      <point x="-15.1698" y="642.923"/>
      <point x="-15.1698" y="596.73" type="curve" smooth="yes"/>
      <point x="-15.1698" y="546.72"/>
      <point x="22.7337" y="516.582"/>
      <point x="71.4395" y="510" type="curve"/>
      <point x="75.4395" y="514"/>
      <point x="78.4395" y="523"/>
      <point x="80.4395" y="530" type="curve"/>
      <point x="32.4779" y="540.464"/>
      <point x="16.4545" y="566.137"/>
      <point x="16.4581" y="590.556" type="curve" smooth="yes"/>
      <point x="16.4591" y="596.967"/>
      <point x="16.9142" y="612.146"/>
      <point x="25.3744" y="611.444" type="curve" smooth="yes"/>
      <point x="29.8651" y="611.072" type="line" smooth="yes"/>
      <point x="80.6895" y="606.855"/>
      <point x="107.661" y="623.679"/>
      <point x="107.648" y="659.591" type="curve" smooth="yes"/>
      <point x="107.642" y="675.052"/>
      <point x="95.9689" y="696"/>
    </contour>
  </outline>
  <guideline angle="0" x="0" y="510"/>
</glyph>
<glyph name="tonos" format="2">
  <advance width="219"/>
  <unicode hex="0384"/>
  <outline>
    <contour>
      <point x="227" y="689" type="curve" smooth="yes"/>
      <point x="163" y="526" type="line" smooth="yes"/>
      <point x="160" y="518"/>
      <point x="159" y="514"/>
      <point x="160" y="509" type="curve"/>
      <point x="160" y="505"/>
      <point x="168" y="500"/>
      <point x="176" y="500" type="curve" smooth="yes"/>
      <point x="180" y="500"/>
      <point x="185" y="504"/>
      <point x="188" y="509" type="curve"/>
      <point x="292" y="648" type="line" smooth="yes"/>
      <point x="297" y="655"/>
      <point x="300" y="664"/>
      <point x="298" y="673" type="curve"/>
      <point x="295" y="692"/>
      <point x="277" y="708"/>
      <point x="258" y="708" type="curve" smooth="yes"/>
      <point x="246" y="708"/>
      <point x="232" y="701"/>
    </contour>
  </outline>
</glyph>
<glyph name="uni042A" format="2">
  <advance width="717"/>
  <unicode hex="042A"/>
  <outline>
    <contour>
      <point x="147" y="469" type="curve"/>
      <point x="167" y="520"/>
      <point x="218" y="606"/>
      <point x="281" y="606" type="curve" smooth="yes"/>
      <point x="343" y="606" type="line" smooth="yes"/>
      <point x="367" y="606"/>
      <point x="376" y="596"/>
      <point x="376" y="577" type="curve" smooth="yes"/>
      <point x="376" y="567"/>
      <point x="371" y="546"/>
      <point x="368" y="530" type="curve" smooth="yes"/>
      <point x="366" y="520" type="line"/>
      <point x="448" y="520" type="line"/>
      <point x="450" y="530" type="line" smooth="yes"/>
      <point x="461" y="587"/>
      <point x="499" y="614"/>
      <point x="553" y="618" type="curve"/>
      <point x="557" y="623"/>
      <point x="558" y="639"/>
      <point x="556" y="646" type="curve"/>
      <point x="523" y="646"/>
      <point x="465" y="643"/>
      <point x="429" y="643" type="curve" smooth="yes"/>
      <point x="403" y="643" type="line" smooth="yes"/>
      <point x="325" y="643"/>
      <point x="247" y="646"/>
      <point x="167" y="646" type="curve"/>
      <point x="153" y="584"/>
      <point x="138" y="530"/>
      <point x="118" y="474" type="curve"/>
      <point x="125" y="471"/>
      <point x="136" y="469"/>
    </contour>
    <contour>
      <point x="184" y="-1" type="curve"/>
      <point x="225" y="-1"/>
      <point x="267" y="2"/>
      <point x="308" y="2" type="curve" smooth="yes"/>
      <point x="340" y="2"/>
      <point x="372" y="-1"/>
      <point x="404" y="-1" type="curve" smooth="yes"/>
      <point x="561" y="-1"/>
      <point x="723" y="40"/>
      <point x="723" y="234" type="curve" smooth="yes"/>
      <point x="723" y="361"/>
      <point x="576" y="373"/>
      <point x="480" y="373" type="curve" smooth="yes"/>
      <point x="404" y="373" type="line"/>
      <point x="396" y="334" type="line"/>
      <point x="499" y="334" type="line" smooth="yes"/>
      <point x="577" y="334"/>
      <point x="632" y="299"/>
      <point x="632" y="218" type="curve" smooth="yes"/>
      <point x="632" y="92"/>
      <point x="525" y="30"/>
      <point x="411" y="30" type="curve" smooth="yes"/>
      <point x="370" y="30"/>
      <point x="359" y="39"/>
      <point x="359" y="58" type="curve" smooth="yes"/>
      <point x="359" y="64"/>
      <point x="360" y="71"/>
      <point x="362" y="79" type="curve"/>
      <point x="448" y="520" type="line"/>
      <point x="366" y="520" type="line"/>
      <point x="280" y="72" type="line" smooth="yes"/>
      <point x="272" y="31"/>
      <point x="229" y="30"/>
      <point x="190" y="30" type="curve"/>
      <point x="184" y="26"/>
      <point x="181" y="12"/>
    </contour>
  </outline>
  <guideline angle="0" x="0" y="530"/>
  <guideline angle="258.911" x="375" y="564"/>
  <guideline angle="78.8994" x="418" y="373"/>
</glyph>
<glyph name="uni207B" format="2">
  <advance width="307"/>
  <unicode hex="207B"/>
  <outline>
    <contour>
      <point x="390" y="527" type="line"/>
      <point x="152" y="527" type="line"/>
      <point x="143" y="488" type="line"/>
      <point x="381" y="488" type="line"/>
    </contour>
  </outline>
</glyph>
<glyph name="uni208B" format="2">
  <advance width="307"/>
  <unicode hex="208B"/>
  <outline>
    <contour>
      <point x="284" y="50" type="line"/>
      <point x="46" y="50" type="line"/>
      <point x="37" y="11" type="line"/>
      <point x="275" y="11" type="line"/>
    </contour>
  </outline>
</glyph>
<glyph name="hryvnia" format="2">
  <advance width="587"/>
  <unicode hex="20B4"/>
  <outline>
    <contour>
      <point x="118" y="227" type="curve" smooth="yes"/>
      <point x="280" y="227" type="line"/>
      <point x="280" y="266" type="line"/>
      <point x="126" y="266" type="line" smooth="yes"/>
      <point x="117" y="266"/>
      <point x="107" y="251"/>
      <point x="107" y="241" type="curve" smooth="yes"/>
      <point x="107" y="235"/>
      <point x="110" y="227"/>
    </contour>
    <contour>
      <point x="424" y="227" type="line"/>
      <point x="548" y="227" type="line" smooth="yes"/>
      <point x="560" y="227"/>
      <point x="569" y="242"/>
      <point x="569" y="253" type="curve" smooth="yes"/>
      <point x="569" y="258"/>
      <point x="566" y="266"/>
      <point x="557" y="266" type="curve" smooth="yes"/>
      <point x="424" y="266" type="line"/>
    </contour>
    <contour>
      <point x="280" y="227" type="line"/>
      <point x="424" y="227" type="line"/>
      <point x="424" y="266" type="line"/>
      <point x="280" y="266" type="line"/>
    </contour>
    <contour>
      <point x="280" y="352" type="line"/>
      <point x="424" y="352" type="line"/>
      <point x="424" y="391" type="line"/>
      <point x="280" y="391" type="line"/>
    </contour>
    <contour>
      <point x="424" y="352" type="line"/>
      <point x="548" y="352" type="line" smooth="yes"/>
      <point x="560" y="352"/>
      <point x="569" y="367"/>
      <point x="569" y="378" type="curve" smooth="yes"/>
      <point x="569" y="383"/>
      <point x="566" y="391"/>
      <point x="557" y="391" type="curve" smooth="yes"/>
      <point x="424" y="391" type="line"/>
    </contour>
    <contour>
      <point x="118" y="352" type="curve" smooth="yes"/>
      <point x="280" y="352" type="line"/>
      <point x="280" y="391" type="line"/>
      <point x="126" y="391" type="line" smooth="yes"/>
      <point x="117" y="391"/>
      <point x="107" y="376"/>
      <point x="107" y="366" type="curve" smooth="yes"/>
      <point x="107" y="360"/>
      <point x="110" y="352"/>
    </contour>
    <contour>
      <point x="156" y="184" type="curve" smooth="yes"/>
      <point x="156" y="76"/>
      <point x="252" y="-10"/>
      <point x="373" y="-10" type="curve" smooth="yes"/>
      <point x="462" y="-10"/>
      <point x="490" y="13"/>
      <point x="553" y="13" type="curve"/>
      <point x="557" y="65"/>
      <point x="561" y="96"/>
      <point x="573" y="165" type="curve"/>
      <point x="562" y="171"/>
      <point x="552" y="172"/>
      <point x="540" y="168" type="curve"/>
      <point x="519" y="72"/>
      <point x="462" y="26"/>
      <point x="365" y="26" type="curve" smooth="yes"/>
      <point x="284" y="26"/>
      <point x="240" y="69"/>
      <point x="240" y="149" type="curve" smooth="yes"/>
      <point x="240" y="247"/>
      <point x="314" y="275"/>
      <point x="374" y="298" type="curve" smooth="yes"/>
      <point x="495" y="344"/>
      <point x="549" y="402"/>
      <point x="549" y="485" type="curve" smooth="yes"/>
      <point x="549" y="584"/>
      <point x="468" y="658"/>
      <point x="359" y="658" type="curve" smooth="yes"/>
      <point x="277" y="658"/>
      <point x="256" y="638"/>
      <point x="194" y="630" type="curve"/>
      <point x="195" y="573"/>
      <point x="194" y="549"/>
      <point x="187" y="502" type="curve"/>
      <point x="195" y="496"/>
      <point x="207" y="494"/>
      <point x="220" y="496" type="curve"/>
      <point x="247" y="586"/>
      <point x="314" y="624"/>
      <point x="368" y="624" type="curve" smooth="yes"/>
      <point x="425" y="624"/>
      <point x="478" y="570"/>
      <point x="478" y="512" type="curve" smooth="yes"/>
      <point x="478" y="454"/>
      <point x="427" y="408"/>
      <point x="318" y="368" type="curve" smooth="yes"/>
      <point x="208" y="328"/>
      <point x="156" y="269"/>
    </contour>
  </outline>
</glyph>
<glyph name="tenge" format="2">
  <advance width="596"/>
  <unicode hex="20B8"/>
  <outline>
    <contour>
      <point x="443" y="122" type="curve" smooth="yes"/>
      <point x="443" y="404" type="line" smooth="yes"/>
      <point x="443" y="468"/>
      <point x="453" y="506"/>
      <point x="489" y="506" type="curve" smooth="yes"/>
      <point x="511" y="506" type="line" smooth="yes"/>
      <point x="586" y="506"/>
      <point x="633" y="480"/>
      <point x="650" y="403" type="curve"/>
      <point x="661" y="403"/>
      <point x="675" y="404"/>
      <point x="684" y="408" type="curve"/>
      <point x="677" y="454"/>
      <point x="672" y="505"/>
      <point x="671" y="550" type="curve"/>
      <point x="671" y="551"/>
      <point x="669" y="553"/>
      <point x="668" y="553" type="curve"/>
      <point x="634" y="550"/>
      <point x="523" y="545"/>
      <point x="444" y="545" type="curve" smooth="yes"/>
      <point x="358" y="545" type="line" smooth="yes"/>
      <point x="281" y="545"/>
      <point x="163" y="550"/>
      <point x="125" y="553" type="curve"/>
      <point x="123" y="553"/>
      <point x="121" y="551"/>
      <point x="121" y="550" type="curve"/>
      <point x="117" y="505"/>
      <point x="107" y="453"/>
      <point x="96" y="405" type="curve"/>
      <point x="106" y="401"/>
      <point x="118" y="400"/>
      <point x="130" y="400" type="curve"/>
      <point x="150" y="480"/>
      <point x="196" y="506"/>
      <point x="262" y="506" type="curve" smooth="yes"/>
      <point x="311" y="506" type="line" smooth="yes"/>
      <point x="348" y="506"/>
      <point x="358" y="468"/>
      <point x="358" y="407" type="curve" smooth="yes"/>
      <point x="358" y="122" type="line" smooth="yes"/>
      <point x="358" y="39"/>
      <point x="341" y="34"/>
      <point x="261" y="31" type="curve"/>
      <point x="255" y="25"/>
      <point x="255" y="4"/>
      <point x="261" y="-2" type="curve"/>
      <point x="310" y="-1"/>
      <point x="361" y="0"/>
      <point x="401" y="0" type="curve" smooth="yes"/>
      <point x="439" y="0"/>
      <point x="490" y="-1"/>
      <point x="540" y="-2" type="curve"/>
      <point x="546" y="4"/>
      <point x="546" y="25"/>
      <point x="540" y="31" type="curve"/>
      <point x="460" y="34"/>
      <point x="443" y="39"/>
    </contour>
    <contour>
      <point x="285.578" y="606.118" type="line"/>
      <point x="526" y="606.118" type="line"/>
      <point x="526" y="645.118" type="line"/>
      <point x="285.578" y="645.118" type="line"/>
    </contour>
    <contour>
      <point x="509.268" y="606.118" type="line"/>
      <point x="642" y="606.118" type="line" smooth="yes"/>
      <point x="654" y="606.118"/>
      <point x="663" y="621.118"/>
      <point x="663" y="632.118" type="curve" smooth="yes"/>
      <point x="663" y="637.118"/>
      <point x="660" y="645.118"/>
      <point x="651" y="645.118" type="curve" smooth="yes"/>
      <point x="509.234" y="645.118" type="line"/>
    </contour>
    <contour>
      <point x="142" y="606.118" type="curve" smooth="yes"/>
      <point x="322.844" y="606.118" type="line"/>
      <point x="322.844" y="645.118" type="line"/>
      <point x="150" y="645.118" type="line" smooth="yes"/>
      <point x="141" y="645.118"/>
      <point x="131" y="630.118"/>
      <point x="131" y="620.118" type="curve" smooth="yes"/>
      <point x="131" y="614.118"/>
      <point x="134" y="606.118"/>
    </contour>
  </outline>
</glyph>
<glyph name="diamondwhite-misc" format="2">
  <advance width="698"/>
  <unicode hex="2662"/>
  <outline>
    <contour>
      <point x="412" y="620" type="curve"/>
      <point x="320" y="500"/>
      <point x="223" y="395"/>
      <point x="120" y="302" type="curve"/>
      <point x="229" y="200"/>
      <point x="327" y="94"/>
      <point x="412" y="-17" type="curve"/>
      <point x="501" y="97"/>
      <point x="596" y="203"/>
      <point x="697" y="302" type="curve"/>
      <point x="583" y="400"/>
      <point x="494" y="509"/>
    </contour>
    <contour>
      <point x="411.201" y="547.267" type="curve"/>
      <point x="474.475" y="461.615"/>
      <point x="543.151" y="377.506"/>
      <point x="631.117" y="301.886" type="curve"/>
      <point x="553.182" y="225.494"/>
      <point x="479.876" y="143.7"/>
      <point x="411.201" y="55.7335" type="curve"/>
      <point x="345.612" y="141.385"/>
      <point x="269.991" y="223.179"/>
      <point x="185.883" y="301.886" type="curve"/>
      <point x="265.361" y="373.648"/>
      <point x="340.21" y="454.67"/>
    </contour>
  </outline>
</glyph>
<glyph name="u1D107" format="2">
  <advance width="514"/>
  <unicode hex="1D107"/>
  <outline>
    <contour>
      <point x="284" y="-233" type="line"/>
      <point x="372" y="-233" type="line"/>
      <point x="528" y="652" type="line"/>
      <point x="440" y="652" type="line"/>
    </contour>
    <contour>
      <point x="199" y="-233" type="line"/>
      <point x="243" y="-233" type="line"/>
      <point x="399" y="652" type="line"/>
      <point x="355" y="652" type="line"/>
    </contour>
    <contour>
      <point x="70" y="53" type="curve" smooth="yes"/>
      <point x="70" y="27"/>
      <point x="90" y="7"/>
      <point x="116" y="7" type="curve" smooth="yes"/>
      <point x="151" y="7"/>
      <point x="178" y="39"/>
      <point x="178" y="69" type="curve" smooth="yes"/>
      <point x="178" y="94"/>
      <point x="158" y="113"/>
      <point x="132" y="113" type="curve" smooth="yes"/>
      <point x="96" y="113"/>
      <point x="70" y="80"/>
    </contour>
    <contour>
      <point x="134" y="352" type="curve" smooth="yes"/>
      <point x="134" y="326"/>
      <point x="154" y="306"/>
      <point x="180" y="306" type="curve" smooth="yes"/>
      <point x="215" y="306"/>
      <point x="242" y="338"/>
      <point x="242" y="368" type="curve" smooth="yes"/>
      <point x="242" y="393"/>
      <point x="222" y="412"/>
      <point x="196" y="412" type="curve" smooth="yes"/>
      <point x="160" y="412"/>
      <point x="134" y="379"/>
    </contour>
  </outline>
</glyph>
<glyph name="Adieresis.alt" format="2">
  <advance width="667"/>
  <outline>
    <component base="A"/>
    <contour>
      <point x="550" y="706" type="curve" smooth="yes"/>
      <point x="550" y="680"/>
      <point x="572" y="658"/>
      <point x="598" y="658" type="curve" smooth="yes"/>
      <point x="624" y="658"/>
      <point x="646" y="680"/>
      <point x="646" y="706" type="curve" smooth="yes"/>
      <point x="646" y="732"/>
      <point x="624" y="754"/>
      <point x="598" y="754" type="curve" smooth="yes"/>
      <point x="572" y="754"/>
      <point x="550" y="732"/>
    </contour>
    <contour>
      <point x="313" y="706" type="curve" smooth="yes"/>
      <point x="313" y="680"/>
      <point x="335" y="658"/>
      <point x="361" y="658" type="curve" smooth="yes"/>
      <point x="387" y="658"/>
      <point x="409" y="680"/>
      <point x="409" y="706" type="curve" smooth="yes"/>
      <point x="409" y="732"/>
      <point x="387" y="754"/>
      <point x="361" y="754" type="curve" smooth="yes"/>
      <point x="335" y="754"/>
      <point x="313" y="732"/>
    </contour>
  </outline>
</glyph>
<glyph name="c.sc" format="2">
  <advance width="494"/>
  <anchor x="390" y="530" name="t.uni0302"/>
  <outline>
    <contour>
      <point x="373" y="474" type="curve" smooth="yes"/>
      <point x="217.782" y="474"/>
      <point x="79" y="328.363"/>
      <point x="79" y="175" type="curve" smooth="yes"/>
      <point x="79" y="59.8381"/>
      <point x="161.435" y="-12"/>
      <point x="275" y="-12" type="curve" smooth="yes"/>
      <point x="354" y="-12"/>
      <point x="408" y="17"/>
      <point x="468" y="80" type="curve"/>
      <point x="465.532" y="88.9374"/>
      <point x="459.532" y="94.9374"/>
      <point x="452" y="96" type="curve"/>
      <point x="401.49" y="49.3024"/>
      <point x="358.075" y="22"/>
      <point x="288" y="22" type="curve" smooth="yes"/>
      <point x="196.933" y="22"/>
      <point x="159" y="87.9294"/>
      <point x="159" y="170" type="curve" smooth="yes"/>
      <point x="159" y="294.976"/>
      <point x="232.346" y="445"/>
      <point x="374" y="445" type="curve" smooth="yes"/>
      <point x="451.473" y="445"/>
      <point x="492" y="406.601"/>
      <point x="492" y="330.722" type="curve"/>
      <point x="495.463" y="327.693"/>
      <point x="500.644" y="327"/>
      <point x="505" y="327" type="curve" smooth="yes"/>
      <point x="509" y="327"/>
      <point x="514.115" y="327.693"/>
      <point x="518" y="330.483" type="curve"/>
      <point x="519.737" y="378.829"/>
      <point x="524.134" y="411.668"/>
      <point x="533" y="456" type="curve"/>
      <point x="479.28" y="456"/>
      <point x="427.845" y="474"/>
    </contour>
  </outline>
</glyph>
<glyph name="o.sc" format="2">
  <advance width="552"/>
  <anchor x="390" y="530" name="t.uni0302"/>
  <outline>
    <contour>
      <point x="572" y="288" type="curve" smooth="yes"/>
      <point x="572" y="400"/>
      <point x="487" y="474"/>
      <point x="374" y="474" type="curve" smooth="yes"/>
      <point x="213.708" y="474"/>
      <point x="78" y="323.22"/>
      <point x="78" y="166" type="curve" smooth="yes"/>
      <point x="78" y="57"/>
      <point x="156" y="-12"/>
      <point x="271" y="-12" type="curve" smooth="yes"/>
      <point x="434.148" y="-12"/>
      <point x="572" y="125.015"/>
    </contour>
    <contour>
      <point x="357" y="442" type="curve" smooth="yes"/>
      <point x="437" y="442"/>
      <point x="491" y="394"/>
      <point x="491" y="296" type="curve" smooth="yes"/>
      <point x="491" y="180.124"/>
      <point x="427.44" y="20"/>
      <point x="293" y="20" type="curve" smooth="yes"/>
      <point x="210" y="20"/>
      <point x="159" y="71"/>
      <point x="159" y="164" type="curve" smooth="yes"/>
      <point x="159" y="277.924"/>
      <point x="225.439" y="442"/>
    </contour>
  </outline>
</glyph>
<glyph name="parenleft.sc" format="2">
  <advance width="295"/>
  <outline>
    <contour>
      <point x="100" y="244" type="curve" smooth="yes"/>
      <point x="100" y="162"/>
      <point x="122" y="38"/>
      <point x="243" y="-66" type="curve"/>
      <point x="264" y="-52" type="line"/>
      <point x="200" y="22"/>
      <point x="173" y="119"/>
      <point x="173" y="216" type="curve" smooth="yes"/>
      <point x="173" y="402"/>
      <point x="268" y="585"/>
      <point x="410" y="701" type="curve"/>
      <point x="396" y="716" type="line"/>
      <point x="236" y="615"/>
      <point x="100" y="439"/>
    </contour>
  </outline>
</glyph>
<glyph name="uni030C0307" format="2">
  <anchor x="-140" y="500" name="_t.uni0302"/>
  <outline>
    <contour>
      <point x="-116" y="500" type="line"/>
      <point x="-77" y="546"/>
      <point x="-30" y="591"/>
      <point x="13" y="630" type="curve"/>
      <point x="-3" y="643" type="line"/>
      <point x="-46" y="616"/>
      <point x="-85" y="591"/>
      <point x="-130" y="553" type="curve"/>
      <point x="-156" y="589"/>
      <point x="-184" y="614"/>
      <point x="-217" y="643" type="curve"/>
      <point x="-240" y="630" type="line"/>
      <point x="-213" y="592"/>
      <point x="-185" y="547"/>
      <point x="-166" y="500" type="curve"/>
    </contour>
    <contour>
      <point x="-164" y="674" type="curve" smooth="yes"/>
      <point x="-164" y="648"/>
      <point x="-143" y="627"/>
      <point x="-117" y="627" type="curve" smooth="yes"/>
      <point x="-91" y="627"/>
      <point x="-70" y="648"/>
      <point x="-70" y="674" type="curve" smooth="yes"/>
      <point x="-70" y="700"/>
      <point x="-91" y="721"/>
      <point x="-117" y="721" type="curve" smooth="yes"/>
      <point x="-143" y="721"/>
      <point x="-164" y="700"/>
    </contour>
  </outline>
</glyph>
